<?xml version="1.0" encoding="utf-8"?>
<!-- Generator: Adobe Illustrator 19.0.0, SVG Export Plug-In . SVG Version: 6.00 Build 0)  -->
<svg version="1.1" id="Laag_1" xmlns="http://www.w3.org/2000/svg" xmlns:xlink="http://www.w3.org/1999/xlink" x="0px" y="0px"
	 viewBox="0 0 90.7 90.7" style="enable-background:new 0 0 90.7 90.7;" xml:space="preserve">
<style type="text/css">
	.st0{fill:#EE2725;}
	.st1{fill:#0B4D76;}
	.st2{fill:#FFFCED;}
</style>
<g id="XMLID_1_">
	<path id="XMLID_756_" class="st0" d="M88.8,42.8H3.4c-0.4,0-0.7-0.3-0.7-0.7V2.4C2.7,2,3,1.7,3.4,1.7h85.4c0.4,0,0.7,0.3,0.7,0.7
		v39.6C89.5,42.4,89.2,42.8,88.8,42.8z"/>
	<path id="XMLID_557_" class="st1" d="M88.8,89.5H3.4c-0.4,0-0.7-0.3-0.7-0.7V27.1c0-0.6,0.7-0.9,1.2-0.5L23,44.3
		c0.2,0.2,0.6,0.2,0.8,0.1l21.1-13c0.2-0.1,0.5-0.1,0.8,0l19.6,12.9c0.3,0.2,0.6,0.2,0.8-0.1l22.2-19.1c0.5-0.4,1.2-0.1,1.2,0.5
		v63.1C89.5,89.2,89.2,89.5,88.8,89.5z"/>
	<path id="XMLID_545_" class="st2" d="M90.7,19.8L90.7,19.8l0-17.3c0-1.4-1.1-2.5-2.4-2.5H2.4C1.1,0,0,1.1,0,2.5v17.3l0,0v53.4h0
		v15.1c0,1.4,1.1,2.5,2.4,2.5h85.8c1.3,0,2.4-1.1,2.4-2.5V73.1h0V19.8z M6.1,6.8c0-0.3,0.2-0.5,0.5-0.5h1.9h73.8h1.9
		c0.3,0,0.5,0.2,0.5,0.5v2v9.6c0,0.2-0.1,0.4-0.2,0.5L66.1,38.4c-0.3,0.3-0.8,0.3-1,0L50.2,22.3L48.1,20c-0.1-0.1-0.3-0.2-0.5-0.2
		h-4.1c-0.2,0-0.4,0.1-0.5,0.2l-2.4,2.6L25.6,38.4c-0.3,0.3-0.8,0.3-1,0L6.3,18.6c-0.1-0.1-0.2-0.3-0.2-0.5V8.7V6.8z M84.7,82v2
		c0,0.3-0.2,0.5-0.5,0.5h-1.9H8.5H6.6c-0.3,0-0.5-0.2-0.5-0.5v-2V35.5c0-0.6,0.8-0.9,1.2-0.5l17.3,18.4c0.3,0.3,0.7,0.3,1,0
		l13.6-13.9c0.4-0.5,1.2-0.1,1.2,0.5v33.2h0.1h9.8h0.5V40c0-0.6,0.8-0.9,1.2-0.5L65,53.4c0.3,0.3,0.7,0.3,1,0l17.4-18
		c0.4-0.5,1.2-0.1,1.2,0.5l0,37.3h0V82z"/>
</g>
</svg>
